<svg width="444" height="240" viewBox="0 0 444 240" fill="none" xmlns="http://www.w3.org/2000/svg">
<path d="M60.1883 125.614C52.6778 125.614 46.0643 124.056 40.3475 120.939C34.6307 117.711 30.1468 113.037 26.8961 106.915C23.6454 100.793 21.8519 93.3913 21.5156 84.7095H25.0466V122.609H6.55096V0.730408H29.9227V61.6695L23.7014 71.1861C24.1498 61.8365 25.9994 54.0451 29.2501 47.8121C32.613 41.5792 37.0969 36.9044 42.7015 33.7878C48.3061 30.6712 54.6396 29.113 61.7015 29.113C67.9788 29.113 73.6956 30.2817 78.852 32.6191C84.0085 34.9565 88.4361 38.2401 92.1352 42.4695C95.8344 46.5879 98.6368 51.4296 100.542 56.9948C102.56 62.5599 103.569 68.6262 103.569 75.193V78.6991C103.569 85.266 102.56 91.3878 100.542 97.0643C98.5246 102.741 95.6103 107.75 91.799 112.09C87.9877 116.32 83.3919 119.659 78.0113 122.108C72.743 124.445 66.8018 125.614 60.1883 125.614ZM54.9759 106.08C60.0201 106.08 64.3918 104.856 68.0909 102.407C71.9022 99.847 74.8726 96.3965 77.0025 92.0556C79.1324 87.7148 80.1972 82.7061 80.1972 77.0295C80.1972 71.2416 79.1324 66.2329 77.0025 62.0035C74.8726 57.774 71.9022 54.4904 68.0909 52.153C64.3918 49.8156 60.0201 48.6469 54.9759 48.6469C50.3801 48.6469 46.1203 49.6487 42.1971 51.6521C38.3858 53.6556 35.2473 56.6053 32.7811 60.5008C30.4271 64.3964 29.2501 69.0712 29.2501 74.5252V81.2035C29.2501 86.4347 30.4831 90.8869 32.9493 94.56C35.4154 98.233 38.6101 101.071 42.5334 103.075C46.4566 105.078 50.6042 106.08 54.9759 106.08ZM168.004 125.781C159.933 125.781 152.815 124.501 146.65 121.941C140.485 119.381 135.272 115.93 131.013 111.59C126.753 107.137 123.502 102.129 121.261 96.5635C119.131 90.9983 118.066 85.2104 118.066 79.2V75.6939C118.066 69.4609 119.187 63.5616 121.429 57.9965C123.783 52.32 127.09 47.3113 131.349 42.9704C135.721 38.5182 140.989 35.0679 147.154 32.6191C153.32 30.0592 160.27 28.7791 168.004 28.7791C175.739 28.7791 182.688 30.0592 188.854 32.6191C195.019 35.0679 200.231 38.5182 204.491 42.9704C208.863 47.3113 212.169 52.32 214.411 57.9965C216.653 63.5616 217.774 69.4609 217.774 75.6939V79.2C217.774 85.2104 216.653 90.9983 214.411 96.5635C212.281 102.129 209.087 107.137 204.827 111.59C200.568 115.93 195.355 119.381 189.19 121.941C183.025 124.501 175.963 125.781 168.004 125.781ZM168.004 105.913C173.721 105.913 178.541 104.689 182.464 102.24C186.388 99.6801 189.358 96.2851 191.376 92.0556C193.394 87.7148 194.402 82.8175 194.402 77.3635C194.402 71.7983 193.338 66.9008 191.208 62.6713C189.19 58.3304 186.163 54.9357 182.128 52.4869C178.205 49.927 173.497 48.6469 168.004 48.6469C162.511 48.6469 157.747 49.927 153.712 52.4869C149.789 54.9357 146.762 58.3304 144.632 62.6713C142.502 66.9008 141.438 71.7983 141.438 77.3635C141.438 82.8175 142.446 87.7148 144.464 92.0556C146.594 96.2851 149.621 99.6801 153.544 102.24C157.467 104.689 162.287 105.913 168.004 105.913ZM282.124 125.781C274.053 125.781 266.936 124.501 260.77 121.941C254.605 119.381 249.392 115.93 245.133 111.59C240.873 107.137 237.622 102.129 235.38 96.5635C233.251 90.9983 232.186 85.2104 232.186 79.2V75.6939C232.186 69.4609 233.307 63.5616 235.549 57.9965C237.903 52.32 241.209 47.3113 245.469 42.9704C249.841 38.5182 255.109 35.0679 261.274 32.6191C267.44 30.0592 274.389 28.7791 282.124 28.7791C289.858 28.7791 296.807 30.0592 302.974 32.6191C309.14 35.0679 314.352 38.5182 318.611 42.9704C322.982 47.3113 326.29 52.32 328.531 57.9965C330.772 63.5616 331.894 69.4609 331.894 75.6939V79.2C331.894 85.2104 330.772 90.9983 328.531 96.5635C326.4 102.129 323.206 107.137 318.947 111.59C314.688 115.93 309.476 119.381 303.31 121.941C297.144 124.501 290.082 125.781 282.124 125.781ZM282.124 105.913C287.841 105.913 292.662 104.689 296.584 102.24C300.507 99.6801 303.478 96.2851 305.496 92.0556C307.513 87.7148 308.522 82.8175 308.522 77.3635C308.522 71.7983 307.458 66.9008 305.328 62.6713C303.31 58.3304 300.283 54.9357 296.248 52.4869C292.325 49.927 287.617 48.6469 282.124 48.6469C276.63 48.6469 271.867 49.927 267.832 52.4869C263.909 54.9357 260.882 58.3304 258.752 62.6713C256.622 66.9008 255.557 71.7983 255.557 77.3635C255.557 82.8175 256.566 87.7148 258.584 92.0556C260.714 96.2851 263.741 99.6801 267.664 102.24C271.586 104.689 276.407 105.913 282.124 105.913ZM416.254 122.609L385.652 80.2017H372.033L410.873 31.9513H435.254L399.44 76.5287L399.944 64.8417L442.652 122.609H416.254ZM352.36 122.609V0.730408H375.732V122.609H352.36Z" fill="#2F855A"/>
<path d="M7.2158 238.852V226.435H17.9349C19.9666 226.435 21.648 226.156 22.9791 225.6C24.3803 225.113 25.5363 224.278 26.4471 223.096C27.3577 221.983 28.0584 220.417 28.5489 218.4L43.8919 159.861H57.8687L40.9494 221.53C39.8284 225.774 38.252 229.148 36.2204 231.652C34.1885 234.226 31.5613 236.069 28.3387 237.183C25.186 238.296 21.2627 238.852 16.5687 238.852H7.2158ZM24.9758 215.27V203.791H37.1662V215.27H24.9758ZM20.0366 215.27L1.54102 159.861H16.2534L33.8034 215.27H20.0366ZM94.1038 218.504C89.0596 218.504 84.6106 217.704 80.7575 216.104C76.9042 214.504 73.6465 212.348 70.9843 209.635C68.3219 206.852 66.2902 203.722 64.8891 200.244C63.5579 196.765 62.8925 193.148 62.8925 189.391V187.2C62.8925 183.304 63.5929 179.617 64.9942 176.139C66.4655 172.591 68.532 169.461 71.1945 166.748C73.9268 163.965 77.2195 161.809 81.0728 160.278C84.9259 158.678 89.2697 157.878 94.1038 157.878C98.9379 157.878 103.281 158.678 107.135 160.278C110.988 161.809 114.246 163.965 116.908 166.748C119.64 169.461 121.707 172.591 123.108 176.139C124.509 179.617 125.21 183.304 125.21 187.2V189.391C125.21 193.148 124.509 196.765 123.108 200.244C121.777 203.722 119.78 206.852 117.118 209.635C114.456 212.348 111.198 214.504 107.345 216.104C103.492 217.704 99.0779 218.504 94.1038 218.504ZM94.1038 206.087C97.6768 206.087 100.689 205.322 103.141 203.791C105.593 202.191 107.45 200.07 108.711 197.426C109.972 194.713 110.603 191.652 110.603 188.244C110.603 184.765 109.937 181.704 108.606 179.061C107.345 176.348 105.453 174.226 102.931 172.696C100.479 171.096 97.5365 170.296 94.1038 170.296C90.6708 170.296 87.6934 171.096 85.1713 172.696C82.719 174.226 80.8274 176.348 79.4965 179.061C78.1653 181.704 77.4998 184.765 77.4998 188.244C77.4998 191.652 78.1303 194.713 79.3914 197.426C80.7223 200.07 82.6139 202.191 85.0662 203.791C87.5182 205.322 90.5308 206.087 94.1038 206.087ZM157.442 218.296C150.856 218.296 145.742 216.139 142.099 211.826C138.526 207.513 136.739 201.113 136.739 192.626V159.757H151.347V193.878C151.347 197.356 152.327 200.139 154.289 202.226C156.251 204.243 158.913 205.252 162.276 205.252C165.639 205.252 168.371 204.174 170.473 202.017C172.645 199.861 173.731 196.939 173.731 193.252V159.757H188.338V216.522H176.778V192.417H177.934C177.934 198.122 177.199 202.887 175.727 206.713C174.256 210.539 172.049 213.426 169.107 215.374C166.164 217.322 162.486 218.296 158.072 218.296H157.442ZM205.118 216.522V159.861H216.678V183.861H216.362C216.362 175.722 218.114 169.565 221.617 165.391C225.12 161.217 230.269 159.13 237.065 159.13H239.167V171.757H235.173C230.269 171.757 226.451 173.078 223.718 175.722C221.056 178.296 219.725 182.052 219.725 186.991V216.522H205.118ZM269.642 218.296C261.795 218.296 255.629 216.661 251.146 213.391C246.732 210.052 244.42 205.461 244.21 199.617H257.346C257.556 201.565 258.642 203.339 260.604 204.939C262.565 206.539 265.649 207.339 269.852 207.339C273.354 207.339 276.121 206.713 278.154 205.461C280.256 204.209 281.307 202.504 281.307 200.348C281.307 198.47 280.5 196.974 278.89 195.861C277.348 194.748 274.686 194.017 270.903 193.67L265.859 193.148C259.483 192.452 254.579 190.643 251.146 187.722C247.713 184.8 245.996 180.904 245.996 176.035C245.996 172.139 246.977 168.87 248.939 166.226C250.9 163.583 253.598 161.6 257.031 160.278C260.534 158.887 264.527 158.191 269.011 158.191C276.016 158.191 281.69 159.722 286.036 162.783C290.379 165.843 292.656 170.33 292.867 176.243H279.73C279.589 174.296 278.609 172.626 276.788 171.235C274.965 169.844 272.337 169.148 268.906 169.148C265.822 169.148 263.442 169.739 261.76 170.922C260.078 172.104 259.238 173.635 259.238 175.513C259.238 177.322 259.903 178.713 261.234 179.687C262.635 180.661 264.876 181.322 267.961 181.67L273.005 182.191C279.731 182.887 284.985 184.73 288.768 187.722C292.62 190.713 294.548 194.748 294.548 199.826C294.548 203.583 293.497 206.852 291.395 209.635C289.362 212.348 286.49 214.47 282.778 216C279.063 217.531 274.686 218.296 269.642 218.296ZM332.151 218.504C327.246 218.504 322.938 217.67 319.225 216C315.582 214.33 312.534 212.104 310.083 209.322C307.7 206.47 305.879 203.304 304.618 199.826C303.428 196.348 302.832 192.8 302.832 189.183V187.2C302.832 183.444 303.428 179.826 304.618 176.348C305.879 172.8 307.7 169.67 310.083 166.957C312.534 164.174 315.547 161.983 319.12 160.383C322.693 158.713 326.826 157.878 331.521 157.878C337.687 157.878 342.836 159.235 346.969 161.948C351.172 164.591 354.325 168.104 356.427 172.487C358.529 176.8 359.58 181.461 359.58 186.47V191.687H309.032V182.817H350.437L345.918 187.2C345.918 183.583 345.393 180.487 344.342 177.913C343.291 175.339 341.68 173.356 339.508 171.965C337.406 170.574 334.744 169.878 331.521 169.878C328.297 169.878 325.565 170.609 323.324 172.07C321.083 173.53 319.365 175.652 318.175 178.435C317.053 181.148 316.493 184.417 316.493 188.244C316.493 191.791 317.053 194.956 318.175 197.739C319.296 200.452 321.012 202.609 323.324 204.209C325.636 205.739 328.578 206.504 332.151 206.504C335.724 206.504 338.633 205.809 340.874 204.417C343.115 202.957 344.552 201.183 345.182 199.096H358.634C357.793 202.991 356.183 206.4 353.8 209.322C351.417 212.243 348.369 214.504 344.657 216.104C341.013 217.704 336.846 218.504 332.151 218.504ZM372.519 216.522V140.348H387.126V216.522H372.519ZM365.373 151.2V140.348H387.126V151.2H365.373ZM405.167 216.522V158.504C405.167 152.035 406.954 147.269 410.527 144.209C414.171 141.078 419.53 139.513 426.605 139.513H433.751V150.678H425.554C423.382 150.678 421.7 151.27 420.51 152.452C419.388 153.565 418.829 155.165 418.829 157.252V216.522H405.167ZM398.021 171.444V160.8H434.697V171.444H398.021Z" fill="#2F855A"/>
</svg>
